<svg width="720" height="1024" viewBox="0 0 720 1024" fill="none" xmlns="http://www.w3.org/2000/svg">
<rect width="720" height="1024" fill="#6172F3"/>
<circle cx="360" cy="512" r="303" fill="url(#paint0_radial_0_143)" fill-opacity="0.2"/>
<circle cx="360" cy="512" r="303" fill="url(#paint1_linear_0_143)" fill-opacity="0.2"/>
<circle cx="360" cy="511" r="264" fill="url(#paint2_radial_0_143)" fill-opacity="0.2"/>
<circle cx="360" cy="511" r="264" fill="url(#paint3_linear_0_143)" fill-opacity="0.2"/>
<path d="M236.687 884V870H239.927V884H236.687ZM247.43 884.16C246.163 884.16 245.177 883.84 244.47 883.2C243.763 882.547 243.41 881.58 243.41 880.3V870.86H246.53V880.26C246.53 880.713 246.65 881.067 246.89 881.32C247.13 881.56 247.457 881.68 247.87 881.68C248.363 881.68 248.783 881.547 249.13 881.28L249.97 883.48C249.65 883.707 249.263 883.88 248.81 884C248.37 884.107 247.91 884.16 247.43 884.16ZM241.75 875.88V873.48H249.21V875.88H241.75ZM251.461 875.68L251.261 870H253.921L253.701 875.68H251.461ZM259.951 884.16C259.031 884.16 258.144 884.053 257.291 883.84C256.451 883.613 255.784 883.333 255.291 883L256.331 880.76C256.824 881.067 257.404 881.32 258.071 881.52C258.751 881.707 259.417 881.8 260.071 881.8C260.791 881.8 261.297 881.713 261.591 881.54C261.897 881.367 262.051 881.127 262.051 880.82C262.051 880.567 261.931 880.38 261.691 880.26C261.464 880.127 261.157 880.027 260.771 879.96C260.384 879.893 259.957 879.827 259.491 879.76C259.037 879.693 258.577 879.607 258.111 879.5C257.644 879.38 257.217 879.207 256.831 878.98C256.444 878.753 256.131 878.447 255.891 878.06C255.664 877.673 255.551 877.173 255.551 876.56C255.551 875.88 255.744 875.28 256.131 874.76C256.531 874.24 257.104 873.833 257.851 873.54C258.597 873.233 259.491 873.08 260.531 873.08C261.264 873.08 262.011 873.16 262.771 873.32C263.531 873.48 264.164 873.713 264.671 874.02L263.631 876.24C263.111 875.933 262.584 875.727 262.051 875.62C261.531 875.5 261.024 875.44 260.531 875.44C259.837 875.44 259.331 875.533 259.011 875.72C258.691 875.907 258.531 876.147 258.531 876.44C258.531 876.707 258.644 876.907 258.871 877.04C259.111 877.173 259.424 877.28 259.811 877.36C260.197 877.44 260.617 877.513 261.071 877.58C261.537 877.633 262.004 877.72 262.471 877.84C262.937 877.96 263.357 878.133 263.731 878.36C264.117 878.573 264.431 878.873 264.671 879.26C264.911 879.633 265.031 880.127 265.031 880.74C265.031 881.407 264.831 882 264.431 882.52C264.031 883.027 263.451 883.427 262.691 883.72C261.944 884.013 261.031 884.16 259.951 884.16ZM271.82 888.04C271.34 888.04 270.88 887.987 270.44 887.88C270 887.787 269.626 887.64 269.32 887.44L270.16 885.18C270.52 885.433 270.96 885.56 271.48 885.56C271.866 885.56 272.173 885.427 272.4 885.16C272.64 884.907 272.76 884.52 272.76 884V873.24H275.88V883.98C275.88 885.22 275.526 886.207 274.82 886.94C274.113 887.673 273.113 888.04 271.82 888.04ZM274.32 871.74C273.746 871.74 273.28 871.573 272.92 871.24C272.56 870.907 272.38 870.493 272.38 870C272.38 869.507 272.56 869.093 272.92 868.76C273.28 868.427 273.746 868.26 274.32 868.26C274.893 868.26 275.36 868.42 275.72 868.74C276.08 869.047 276.26 869.447 276.26 869.94C276.26 870.46 276.08 870.893 275.72 871.24C275.373 871.573 274.906 871.74 274.32 871.74ZM283.293 884.16C282.399 884.16 281.599 883.987 280.893 883.64C280.199 883.293 279.659 882.767 279.273 882.06C278.886 881.34 278.693 880.427 278.693 879.32V873.24H281.813V878.86C281.813 879.753 281.999 880.413 282.373 880.84C282.759 881.253 283.299 881.46 283.993 881.46C284.473 881.46 284.899 881.36 285.273 881.16C285.646 880.947 285.939 880.627 286.153 880.2C286.366 879.76 286.473 879.213 286.473 878.56V873.24H289.593V884H286.633V881.04L287.173 881.9C286.813 882.647 286.279 883.213 285.573 883.6C284.879 883.973 284.119 884.16 283.293 884.16ZM296.103 884.16C295.183 884.16 294.296 884.053 293.443 883.84C292.603 883.613 291.936 883.333 291.443 883L292.483 880.76C292.976 881.067 293.556 881.32 294.223 881.52C294.903 881.707 295.57 881.8 296.223 881.8C296.943 881.8 297.45 881.713 297.743 881.54C298.05 881.367 298.203 881.127 298.203 880.82C298.203 880.567 298.083 880.38 297.843 880.26C297.616 880.127 297.31 880.027 296.923 879.96C296.536 879.893 296.11 879.827 295.643 879.76C295.19 879.693 294.73 879.607 294.263 879.5C293.796 879.38 293.37 879.207 292.983 878.98C292.596 878.753 292.283 878.447 292.043 878.06C291.816 877.673 291.703 877.173 291.703 876.56C291.703 875.88 291.896 875.28 292.283 874.76C292.683 874.24 293.256 873.833 294.003 873.54C294.75 873.233 295.643 873.08 296.683 873.08C297.416 873.08 298.163 873.16 298.923 873.32C299.683 873.48 300.316 873.713 300.823 874.02L299.783 876.24C299.263 875.933 298.736 875.727 298.203 875.62C297.683 875.5 297.176 875.44 296.683 875.44C295.99 875.44 295.483 875.533 295.163 875.72C294.843 875.907 294.683 876.147 294.683 876.44C294.683 876.707 294.796 876.907 295.023 877.04C295.263 877.173 295.576 877.28 295.963 877.36C296.35 877.44 296.77 877.513 297.223 877.58C297.69 877.633 298.156 877.72 298.623 877.84C299.09 877.96 299.51 878.133 299.883 878.36C300.27 878.573 300.583 878.873 300.823 879.26C301.063 879.633 301.183 880.127 301.183 880.74C301.183 881.407 300.983 882 300.583 882.52C300.183 883.027 299.603 883.427 298.843 883.72C298.096 884.013 297.183 884.16 296.103 884.16ZM307.508 884.16C306.241 884.16 305.255 883.84 304.548 883.2C303.841 882.547 303.488 881.58 303.488 880.3V870.86H306.608V880.26C306.608 880.713 306.728 881.067 306.968 881.32C307.208 881.56 307.535 881.68 307.948 881.68C308.441 881.68 308.861 881.547 309.208 881.28L310.048 883.48C309.728 883.707 309.341 883.88 308.888 884C308.448 884.107 307.988 884.16 307.508 884.16ZM301.828 875.88V873.48H309.288V875.88H301.828ZM324.483 884.24C323.377 884.24 322.35 884.06 321.403 883.7C320.47 883.34 319.657 882.833 318.963 882.18C318.283 881.527 317.75 880.76 317.363 879.88C316.99 879 316.803 878.04 316.803 877C316.803 875.96 316.99 875 317.363 874.12C317.75 873.24 318.29 872.473 318.983 871.82C319.677 871.167 320.49 870.66 321.423 870.3C322.357 869.94 323.37 869.76 324.463 869.76C325.57 869.76 326.583 869.94 327.503 870.3C328.437 870.66 329.243 871.167 329.923 871.82C330.617 872.473 331.157 873.24 331.543 874.12C331.93 874.987 332.123 875.947 332.123 877C332.123 878.04 331.93 879.007 331.543 879.9C331.157 880.78 330.617 881.547 329.923 882.2C329.243 882.84 328.437 883.34 327.503 883.7C326.583 884.06 325.577 884.24 324.483 884.24ZM324.463 881.48C325.09 881.48 325.663 881.373 326.183 881.16C326.717 880.947 327.183 880.64 327.583 880.24C327.983 879.84 328.29 879.367 328.503 878.82C328.73 878.273 328.843 877.667 328.843 877C328.843 876.333 328.73 875.727 328.503 875.18C328.29 874.633 327.983 874.16 327.583 873.76C327.197 873.36 326.737 873.053 326.203 872.84C325.67 872.627 325.09 872.52 324.463 872.52C323.837 872.52 323.257 872.627 322.723 872.84C322.203 873.053 321.743 873.36 321.343 873.76C320.943 874.16 320.63 874.633 320.403 875.18C320.19 875.727 320.083 876.333 320.083 877C320.083 877.653 320.19 878.26 320.403 878.82C320.63 879.367 320.937 879.84 321.323 880.24C321.723 880.64 322.19 880.947 322.723 881.16C323.257 881.373 323.837 881.48 324.463 881.48ZM337.263 884V872.64H332.783V870H344.983V872.64H340.503V884H337.263ZM346.726 884V870H352.786C354.04 870 355.12 870.207 356.026 870.62C356.933 871.02 357.633 871.6 358.126 872.36C358.62 873.12 358.866 874.027 358.866 875.08C358.866 876.12 358.62 877.02 358.126 877.78C357.633 878.54 356.933 879.127 356.026 879.54C355.12 879.94 354.04 880.14 352.786 880.14H348.526L349.966 878.68V884H346.726ZM349.966 879.04L348.526 877.5H352.606C353.606 877.5 354.353 877.287 354.846 876.86C355.34 876.433 355.586 875.84 355.586 875.08C355.586 874.307 355.34 873.707 354.846 873.28C354.353 872.853 353.606 872.64 352.606 872.64H348.526L349.966 871.1V879.04ZM369.739 884L365.219 873.24H368.439L372.199 882.5H370.599L374.499 873.24H377.499L372.959 884H369.739ZM383.819 884.16C382.592 884.16 381.512 883.92 380.579 883.44C379.659 882.96 378.946 882.307 378.439 881.48C377.932 880.64 377.679 879.687 377.679 878.62C377.679 877.54 377.926 876.587 378.419 875.76C378.926 874.92 379.612 874.267 380.479 873.8C381.346 873.32 382.326 873.08 383.419 873.08C384.472 873.08 385.419 873.307 386.259 873.76C387.112 874.2 387.786 874.84 388.279 875.68C388.772 876.507 389.019 877.5 389.019 878.66C389.019 878.78 389.012 878.92 388.999 879.08C388.986 879.227 388.972 879.367 388.959 879.5H380.219V877.68H387.319L386.119 878.22C386.119 877.66 386.006 877.173 385.779 876.76C385.552 876.347 385.239 876.027 384.839 875.8C384.439 875.56 383.972 875.44 383.439 875.44C382.906 875.44 382.432 875.56 382.019 875.8C381.619 876.027 381.306 876.353 381.079 876.78C380.852 877.193 380.739 877.687 380.739 878.26V878.74C380.739 879.327 380.866 879.847 381.119 880.3C381.386 880.74 381.752 881.08 382.219 881.32C382.699 881.547 383.259 881.66 383.899 881.66C384.472 881.66 384.972 881.573 385.399 881.4C385.839 881.227 386.239 880.967 386.599 880.62L388.259 882.42C387.766 882.98 387.146 883.413 386.399 883.72C385.652 884.013 384.792 884.16 383.819 884.16ZM391.096 884V873.24H394.076V876.28L393.656 875.4C393.976 874.64 394.49 874.067 395.196 873.68C395.903 873.28 396.763 873.08 397.776 873.08V875.96C397.643 875.947 397.523 875.94 397.416 875.94C397.31 875.927 397.196 875.92 397.076 875.92C396.223 875.92 395.53 876.167 394.996 876.66C394.476 877.14 394.216 877.893 394.216 878.92V884H391.096ZM399.651 884V873.24H402.771V884H399.651ZM401.211 871.74C400.638 871.74 400.171 871.573 399.811 871.24C399.451 870.907 399.271 870.493 399.271 870C399.271 869.507 399.451 869.093 399.811 868.76C400.171 868.427 400.638 868.26 401.211 868.26C401.784 868.26 402.251 868.42 402.611 868.74C402.971 869.047 403.151 869.447 403.151 869.94C403.151 870.46 402.971 870.893 402.611 871.24C402.264 871.573 401.798 871.74 401.211 871.74ZM406.047 884V873C406.047 871.787 406.407 870.82 407.127 870.1C407.847 869.367 408.873 869 410.207 869C410.66 869 411.093 869.047 411.507 869.14C411.933 869.233 412.293 869.38 412.587 869.58L411.767 871.84C411.593 871.72 411.4 871.627 411.187 871.56C410.973 871.493 410.747 871.46 410.507 871.46C410.053 871.46 409.7 871.593 409.447 871.86C409.207 872.113 409.087 872.5 409.087 873.02V874.02L409.167 875.36V884H406.047ZM404.387 875.88V873.48H411.847V875.88H404.387ZM413.607 884V873.24H416.727V884H413.607ZM415.167 871.74C414.593 871.74 414.127 871.573 413.767 871.24C413.407 870.907 413.227 870.493 413.227 870C413.227 869.507 413.407 869.093 413.767 868.76C414.127 868.427 414.593 868.26 415.167 868.26C415.74 868.26 416.207 868.42 416.567 868.74C416.927 869.047 417.107 869.447 417.107 869.94C417.107 870.46 416.927 870.893 416.567 871.24C416.22 871.573 415.753 871.74 415.167 871.74ZM424.812 884.16C423.652 884.16 422.619 883.927 421.712 883.46C420.805 882.98 420.092 882.32 419.572 881.48C419.065 880.64 418.812 879.687 418.812 878.62C418.812 877.54 419.065 876.587 419.572 875.76C420.092 874.92 420.805 874.267 421.712 873.8C422.619 873.32 423.652 873.08 424.812 873.08C425.945 873.08 426.932 873.32 427.772 873.8C428.612 874.267 429.232 874.94 429.632 875.82L427.212 877.12C426.932 876.613 426.579 876.24 426.152 876C425.739 875.76 425.285 875.64 424.792 875.64C424.259 875.64 423.779 875.76 423.352 876C422.925 876.24 422.585 876.58 422.332 877.02C422.092 877.46 421.972 877.993 421.972 878.62C421.972 879.247 422.092 879.78 422.332 880.22C422.585 880.66 422.925 881 423.352 881.24C423.779 881.48 424.259 881.6 424.792 881.6C425.285 881.6 425.739 881.487 426.152 881.26C426.579 881.02 426.932 880.64 427.212 880.12L429.632 881.44C429.232 882.307 428.612 882.98 427.772 883.46C426.932 883.927 425.945 884.16 424.812 884.16ZM438.028 884V881.9L437.828 881.44V877.68C437.828 877.013 437.622 876.493 437.208 876.12C436.808 875.747 436.188 875.56 435.348 875.56C434.775 875.56 434.208 875.653 433.648 875.84C433.102 876.013 432.635 876.253 432.248 876.56L431.128 874.38C431.715 873.967 432.422 873.647 433.248 873.42C434.075 873.193 434.915 873.08 435.768 873.08C437.408 873.08 438.682 873.467 439.588 874.24C440.495 875.013 440.948 876.22 440.948 877.86V884H438.028ZM434.748 884.16C433.908 884.16 433.188 884.02 432.588 883.74C431.988 883.447 431.528 883.053 431.208 882.56C430.888 882.067 430.728 881.513 430.728 880.9C430.728 880.26 430.882 879.7 431.188 879.22C431.508 878.74 432.008 878.367 432.688 878.1C433.368 877.82 434.255 877.68 435.348 877.68H438.208V879.5H435.688C434.955 879.5 434.448 879.62 434.168 879.86C433.902 880.1 433.768 880.4 433.768 880.76C433.768 881.16 433.922 881.48 434.228 881.72C434.548 881.947 434.982 882.06 435.528 882.06C436.048 882.06 436.515 881.94 436.928 881.7C437.342 881.447 437.642 881.08 437.828 880.6L438.308 882.04C438.082 882.733 437.668 883.26 437.068 883.62C436.468 883.98 435.695 884.16 434.748 884.16ZM448.172 884.16C446.905 884.16 445.919 883.84 445.212 883.2C444.505 882.547 444.152 881.58 444.152 880.3V870.86H447.272V880.26C447.272 880.713 447.392 881.067 447.632 881.32C447.872 881.56 448.199 881.68 448.612 881.68C449.105 881.68 449.525 881.547 449.872 881.28L450.712 883.48C450.392 883.707 450.005 883.88 449.552 884C449.112 884.107 448.652 884.16 448.172 884.16ZM442.492 875.88V873.48H449.952V875.88H442.492ZM452.463 884V873.24H455.583V884H452.463ZM454.023 871.74C453.45 871.74 452.983 871.573 452.623 871.24C452.263 870.907 452.083 870.493 452.083 870C452.083 869.507 452.263 869.093 452.623 868.76C452.983 868.427 453.45 868.26 454.023 868.26C454.597 868.26 455.063 868.42 455.423 868.74C455.783 869.047 455.963 869.447 455.963 869.94C455.963 870.46 455.783 870.893 455.423 871.24C455.077 871.573 454.61 871.74 454.023 871.74ZM463.599 884.16C462.452 884.16 461.432 883.92 460.539 883.44C459.659 882.96 458.959 882.307 458.439 881.48C457.932 880.64 457.679 879.687 457.679 878.62C457.679 877.54 457.932 876.587 458.439 875.76C458.959 874.92 459.659 874.267 460.539 873.8C461.432 873.32 462.452 873.08 463.599 873.08C464.732 873.08 465.746 873.32 466.639 873.8C467.532 874.267 468.232 874.913 468.739 875.74C469.246 876.567 469.499 877.527 469.499 878.62C469.499 879.687 469.246 880.64 468.739 881.48C468.232 882.307 467.532 882.96 466.639 883.44C465.746 883.92 464.732 884.16 463.599 884.16ZM463.599 881.6C464.119 881.6 464.586 881.48 464.999 881.24C465.412 881 465.739 880.66 465.979 880.22C466.219 879.767 466.339 879.233 466.339 878.62C466.339 877.993 466.219 877.46 465.979 877.02C465.739 876.58 465.412 876.24 464.999 876C464.586 875.76 464.119 875.64 463.599 875.64C463.079 875.64 462.612 875.76 462.199 876C461.786 876.24 461.452 876.58 461.199 877.02C460.959 877.46 460.839 877.993 460.839 878.62C460.839 879.233 460.959 879.767 461.199 880.22C461.452 880.66 461.786 881 462.199 881.24C462.612 881.48 463.079 881.6 463.599 881.6ZM478.125 873.08C478.978 873.08 479.738 873.253 480.405 873.6C481.085 873.933 481.618 874.453 482.005 875.16C482.391 875.853 482.585 876.747 482.585 877.84V884H479.465V878.32C479.465 877.453 479.271 876.813 478.885 876.4C478.511 875.987 477.978 875.78 477.285 875.78C476.791 875.78 476.345 875.887 475.945 876.1C475.558 876.3 475.251 876.613 475.025 877.04C474.811 877.467 474.705 878.013 474.705 878.68V884H471.585V873.24H474.565V876.22L474.005 875.32C474.391 874.6 474.945 874.047 475.665 873.66C476.385 873.273 477.205 873.08 478.125 873.08Z" fill="#E0EAFF"/>
<path d="M143.103 908V903.712L143.471 904.704L138.655 896.8H140.367L144.415 903.472H143.487L147.551 896.8H149.135L144.335 904.704L144.687 903.712V908H143.103ZM153.213 908.096C152.36 908.096 151.602 907.909 150.941 907.536C150.28 907.163 149.757 906.651 149.373 906C148.989 905.339 148.797 904.592 148.797 903.76C148.797 902.917 148.989 902.171 149.373 901.52C149.757 900.869 150.28 900.363 150.941 900C151.602 899.627 152.36 899.44 153.213 899.44C154.056 899.44 154.808 899.627 155.469 900C156.141 900.363 156.664 900.869 157.037 901.52C157.421 902.16 157.613 902.907 157.613 903.76C157.613 904.603 157.421 905.349 157.037 906C156.664 906.651 156.141 907.163 155.469 907.536C154.808 907.909 154.056 908.096 153.213 908.096ZM153.213 906.752C153.757 906.752 154.242 906.629 154.669 906.384C155.106 906.139 155.448 905.792 155.693 905.344C155.938 904.885 156.061 904.357 156.061 903.76C156.061 903.152 155.938 902.629 155.693 902.192C155.448 901.744 155.106 901.397 154.669 901.152C154.242 900.907 153.757 900.784 153.213 900.784C152.669 900.784 152.184 900.907 151.757 901.152C151.33 901.397 150.989 901.744 150.733 902.192C150.477 902.629 150.349 903.152 150.349 903.76C150.349 904.357 150.477 904.885 150.733 905.344C150.989 905.792 151.33 906.139 151.757 906.384C152.184 906.629 152.669 906.752 153.213 906.752ZM163.305 908.096C162.58 908.096 161.94 907.963 161.385 907.696C160.841 907.429 160.415 907.024 160.105 906.48C159.807 905.925 159.657 905.232 159.657 904.4V899.52H161.193V904.224C161.193 905.056 161.391 905.68 161.785 906.096C162.191 906.512 162.756 906.72 163.481 906.72C164.015 906.72 164.479 906.613 164.873 906.4C165.268 906.176 165.572 905.856 165.785 905.44C165.999 905.013 166.105 904.501 166.105 903.904V899.52H167.641V908H166.185V905.712L166.425 906.32C166.148 906.885 165.732 907.323 165.177 907.632C164.623 907.941 163.999 908.096 163.305 908.096ZM180.126 908V906.208L180.046 905.872V902.816C180.046 902.165 179.854 901.664 179.47 901.312C179.097 900.949 178.532 900.768 177.774 900.768C177.273 900.768 176.782 900.853 176.302 901.024C175.822 901.184 175.417 901.403 175.086 901.68L174.446 900.528C174.884 900.176 175.406 899.909 176.014 899.728C176.633 899.536 177.278 899.44 177.95 899.44C179.113 899.44 180.009 899.723 180.638 900.288C181.268 900.853 181.582 901.717 181.582 902.88V908H180.126ZM177.342 908.096C176.713 908.096 176.158 907.989 175.678 907.776C175.209 907.563 174.846 907.269 174.59 906.896C174.334 906.512 174.206 906.08 174.206 905.6C174.206 905.141 174.313 904.725 174.526 904.352C174.75 903.979 175.108 903.68 175.598 903.456C176.1 903.232 176.772 903.12 177.614 903.12H180.302V904.224H177.678C176.91 904.224 176.393 904.352 176.126 904.608C175.86 904.864 175.726 905.173 175.726 905.536C175.726 905.952 175.892 906.288 176.222 906.544C176.553 906.789 177.012 906.912 177.598 906.912C178.174 906.912 178.676 906.784 179.102 906.528C179.54 906.272 179.854 905.899 180.046 905.408L180.35 906.464C180.148 906.965 179.79 907.365 179.278 907.664C178.766 907.952 178.121 908.096 177.342 908.096ZM184.425 908V899.52H185.897V901.824L185.753 901.248C185.987 900.661 186.382 900.213 186.937 899.904C187.491 899.595 188.174 899.44 188.985 899.44V900.928C188.921 900.917 188.857 900.912 188.793 900.912C188.739 900.912 188.686 900.912 188.633 900.912C187.811 900.912 187.161 901.157 186.681 901.648C186.201 902.139 185.961 902.848 185.961 903.776V908H184.425ZM194.576 908.096C193.669 908.096 192.869 907.909 192.176 907.536C191.493 907.163 190.96 906.651 190.576 906C190.202 905.349 190.016 904.603 190.016 903.76C190.016 902.917 190.197 902.171 190.56 901.52C190.933 900.869 191.44 900.363 192.08 900C192.73 899.627 193.461 899.44 194.272 899.44C195.093 899.44 195.818 899.621 196.448 899.984C197.077 900.347 197.568 900.859 197.92 901.52C198.282 902.171 198.464 902.933 198.464 903.808C198.464 903.872 198.458 903.947 198.448 904.032C198.448 904.117 198.442 904.197 198.432 904.272H191.216V903.168H197.632L197.008 903.552C197.018 903.008 196.906 902.523 196.672 902.096C196.437 901.669 196.112 901.339 195.696 901.104C195.29 900.859 194.816 900.736 194.272 900.736C193.738 900.736 193.264 900.859 192.848 901.104C192.432 901.339 192.106 901.675 191.872 902.112C191.637 902.539 191.52 903.029 191.52 903.584V903.84C191.52 904.405 191.648 904.912 191.904 905.36C192.17 905.797 192.538 906.139 193.008 906.384C193.477 906.629 194.016 906.752 194.624 906.752C195.125 906.752 195.578 906.667 195.984 906.496C196.4 906.325 196.762 906.069 197.072 905.728L197.92 906.72C197.536 907.168 197.056 907.509 196.48 907.744C195.914 907.979 195.28 908.096 194.576 908.096ZM208.526 908.096C207.672 908.096 206.915 907.909 206.254 907.536C205.592 907.163 205.07 906.651 204.686 906C204.302 905.339 204.11 904.592 204.11 903.76C204.11 902.917 204.302 902.171 204.686 901.52C205.07 900.869 205.592 900.363 206.254 900C206.915 899.627 207.672 899.44 208.526 899.44C209.368 899.44 210.12 899.627 210.782 900C211.454 900.363 211.976 900.869 212.35 901.52C212.734 902.16 212.926 902.907 212.926 903.76C212.926 904.603 212.734 905.349 212.35 906C211.976 906.651 211.454 907.163 210.782 907.536C210.12 907.909 209.368 908.096 208.526 908.096ZM208.526 906.752C209.07 906.752 209.555 906.629 209.982 906.384C210.419 906.139 210.76 905.792 211.006 905.344C211.251 904.885 211.374 904.357 211.374 903.76C211.374 903.152 211.251 902.629 211.006 902.192C210.76 901.744 210.419 901.397 209.982 901.152C209.555 900.907 209.07 900.784 208.526 900.784C207.982 900.784 207.496 900.907 207.07 901.152C206.643 901.397 206.302 901.744 206.046 902.192C205.79 902.629 205.662 903.152 205.662 903.76C205.662 904.357 205.79 904.885 206.046 905.344C206.302 905.792 206.643 906.139 207.07 906.384C207.496 906.629 207.982 906.752 208.526 906.752ZM219.578 899.44C220.271 899.44 220.879 899.573 221.402 899.84C221.935 900.107 222.351 900.512 222.65 901.056C222.948 901.6 223.098 902.288 223.098 903.12V908H221.562V903.296C221.562 902.475 221.359 901.856 220.954 901.44C220.559 901.024 219.999 900.816 219.274 900.816C218.73 900.816 218.255 900.923 217.85 901.136C217.444 901.349 217.13 901.664 216.906 902.08C216.692 902.496 216.586 903.013 216.586 903.632V908H215.05V899.52H216.522V901.808L216.282 901.2C216.559 900.645 216.986 900.213 217.562 899.904C218.138 899.595 218.81 899.44 219.578 899.44ZM229.716 908.096C228.81 908.096 228.01 907.909 227.316 907.536C226.634 907.163 226.1 906.651 225.716 906C225.343 905.349 225.156 904.603 225.156 903.76C225.156 902.917 225.338 902.171 225.7 901.52C226.074 900.869 226.58 900.363 227.22 900C227.871 899.627 228.602 899.44 229.412 899.44C230.234 899.44 230.959 899.621 231.588 899.984C232.218 900.347 232.708 900.859 233.06 901.52C233.423 902.171 233.604 902.933 233.604 903.808C233.604 903.872 233.599 903.947 233.588 904.032C233.588 904.117 233.583 904.197 233.572 904.272H226.356V903.168H232.772L232.148 903.552C232.159 903.008 232.047 902.523 231.812 902.096C231.578 901.669 231.252 901.339 230.836 901.104C230.431 900.859 229.956 900.736 229.412 900.736C228.879 900.736 228.404 900.859 227.988 901.104C227.572 901.339 227.247 901.675 227.012 902.112C226.778 902.539 226.66 903.029 226.66 903.584V903.84C226.66 904.405 226.788 904.912 227.044 905.36C227.311 905.797 227.679 906.139 228.148 906.384C228.618 906.629 229.156 906.752 229.764 906.752C230.266 906.752 230.719 906.667 231.124 906.496C231.54 906.325 231.903 906.069 232.212 905.728L233.06 906.72C232.676 907.168 232.196 907.509 231.62 907.744C231.055 907.979 230.42 908.096 229.716 908.096ZM242.466 908.096C241.762 908.096 241.09 908 240.45 907.808C239.821 907.616 239.325 907.381 238.962 907.104L239.602 905.888C239.965 906.133 240.413 906.341 240.946 906.512C241.479 906.683 242.023 906.768 242.578 906.768C243.293 906.768 243.805 906.667 244.114 906.464C244.434 906.261 244.594 905.979 244.594 905.616C244.594 905.349 244.498 905.141 244.306 904.992C244.114 904.843 243.858 904.731 243.538 904.656C243.229 904.581 242.882 904.517 242.498 904.464C242.114 904.4 241.73 904.325 241.346 904.24C240.962 904.144 240.61 904.016 240.29 903.856C239.97 903.685 239.714 903.456 239.522 903.168C239.33 902.869 239.234 902.475 239.234 901.984C239.234 901.472 239.378 901.024 239.666 900.64C239.954 900.256 240.359 899.963 240.882 899.76C241.415 899.547 242.045 899.44 242.77 899.44C243.325 899.44 243.885 899.509 244.45 899.648C245.026 899.776 245.495 899.963 245.858 900.208L245.202 901.424C244.818 901.168 244.418 900.992 244.002 900.896C243.586 900.8 243.17 900.752 242.754 900.752C242.082 900.752 241.581 900.864 241.25 901.088C240.919 901.301 240.754 901.579 240.754 901.92C240.754 902.208 240.85 902.432 241.042 902.592C241.245 902.741 241.501 902.859 241.81 902.944C242.13 903.029 242.482 903.104 242.866 903.168C243.25 903.221 243.634 903.296 244.018 903.392C244.402 903.477 244.749 903.6 245.058 903.76C245.378 903.92 245.634 904.144 245.826 904.432C246.029 904.72 246.13 905.104 246.13 905.584C246.13 906.096 245.981 906.539 245.682 906.912C245.383 907.285 244.962 907.579 244.418 907.792C243.874 907.995 243.223 908.096 242.466 908.096ZM250.962 908.096C250.108 908.096 249.447 907.867 248.978 907.408C248.508 906.949 248.274 906.293 248.274 905.44V897.664H249.81V905.376C249.81 905.835 249.922 906.187 250.146 906.432C250.38 906.677 250.711 906.8 251.138 906.8C251.618 906.8 252.018 906.667 252.338 906.4L252.818 907.504C252.583 907.707 252.3 907.856 251.97 907.952C251.65 908.048 251.314 908.096 250.962 908.096ZM246.834 900.784V899.52H252.242V900.784H246.834ZM258.17 908.096C257.263 908.096 256.463 907.909 255.77 907.536C255.087 907.163 254.554 906.651 254.17 906C253.796 905.349 253.61 904.603 253.61 903.76C253.61 902.917 253.791 902.171 254.154 901.52C254.527 900.869 255.034 900.363 255.674 900C256.324 899.627 257.055 899.44 257.866 899.44C258.687 899.44 259.412 899.621 260.042 899.984C260.671 900.347 261.162 900.859 261.514 901.52C261.876 902.171 262.058 902.933 262.058 903.808C262.058 903.872 262.052 903.947 262.042 904.032C262.042 904.117 262.036 904.197 262.026 904.272H254.81V903.168H261.226L260.602 903.552C260.612 903.008 260.5 902.523 260.266 902.096C260.031 901.669 259.706 901.339 259.29 901.104C258.884 900.859 258.41 900.736 257.866 900.736C257.332 900.736 256.858 900.859 256.442 901.104C256.026 901.339 255.7 901.675 255.466 902.112C255.231 902.539 255.114 903.029 255.114 903.584V903.84C255.114 904.405 255.242 904.912 255.498 905.36C255.764 905.797 256.132 906.139 256.602 906.384C257.071 906.629 257.61 906.752 258.218 906.752C258.719 906.752 259.172 906.667 259.578 906.496C259.994 906.325 260.356 906.069 260.666 905.728L261.514 906.72C261.13 907.168 260.65 907.509 260.074 907.744C259.508 907.979 258.874 908.096 258.17 908.096ZM268.686 908.096C267.982 908.096 267.337 907.936 266.75 907.616C266.174 907.285 265.71 906.8 265.358 906.16C265.017 905.52 264.846 904.72 264.846 903.76C264.846 902.8 265.012 902 265.342 901.36C265.684 900.72 266.142 900.24 266.718 899.92C267.305 899.6 267.961 899.44 268.686 899.44C269.518 899.44 270.254 899.621 270.894 899.984C271.534 900.347 272.041 900.853 272.414 901.504C272.788 902.144 272.974 902.896 272.974 903.76C272.974 904.624 272.788 905.381 272.414 906.032C272.041 906.683 271.534 907.189 270.894 907.552C270.254 907.915 269.518 908.096 268.686 908.096ZM264.19 911.104V899.52H265.662V901.808L265.566 903.776L265.726 905.744V911.104H264.19ZM268.558 906.752C269.102 906.752 269.588 906.629 270.014 906.384C270.452 906.139 270.793 905.792 271.038 905.344C271.294 904.885 271.422 904.357 271.422 903.76C271.422 903.152 271.294 902.629 271.038 902.192C270.793 901.744 270.452 901.397 270.014 901.152C269.588 900.907 269.102 900.784 268.558 900.784C268.025 900.784 267.54 900.907 267.102 901.152C266.676 901.397 266.334 901.744 266.078 902.192C265.833 902.629 265.71 903.152 265.71 903.76C265.71 904.357 265.833 904.885 266.078 905.344C266.334 905.792 266.676 906.139 267.102 906.384C267.54 906.629 268.025 906.752 268.558 906.752ZM284.658 908V906.208L284.578 905.872V902.816C284.578 902.165 284.386 901.664 284.002 901.312C283.628 900.949 283.063 900.768 282.306 900.768C281.804 900.768 281.314 900.853 280.834 901.024C280.354 901.184 279.948 901.403 279.618 901.68L278.978 900.528C279.415 900.176 279.938 899.909 280.546 899.728C281.164 899.536 281.81 899.44 282.482 899.44C283.644 899.44 284.54 899.723 285.17 900.288C285.799 900.853 286.114 901.717 286.114 902.88V908H284.658ZM281.874 908.096C281.244 908.096 280.69 907.989 280.21 907.776C279.74 907.563 279.378 907.269 279.122 906.896C278.866 906.512 278.738 906.08 278.738 905.6C278.738 905.141 278.844 904.725 279.058 904.352C279.282 903.979 279.639 903.68 280.13 903.456C280.631 903.232 281.303 903.12 282.146 903.12H284.834V904.224H282.21C281.442 904.224 280.924 904.352 280.658 904.608C280.391 904.864 280.258 905.173 280.258 905.536C280.258 905.952 280.423 906.288 280.754 906.544C281.084 906.789 281.543 906.912 282.13 906.912C282.706 906.912 283.207 906.784 283.634 906.528C284.071 906.272 284.386 905.899 284.578 905.408L284.882 906.464C284.679 906.965 284.322 907.365 283.81 907.664C283.298 907.952 282.652 908.096 281.874 908.096ZM290.592 908L287.44 899.52H288.896L291.696 907.2H291.008L293.92 899.52H295.216L298.064 907.2H297.392L300.256 899.52H301.632L298.464 908H296.992L294.32 900.992H294.768L292.064 908H290.592ZM308.189 908V906.208L308.109 905.872V902.816C308.109 902.165 307.917 901.664 307.533 901.312C307.159 900.949 306.594 900.768 305.837 900.768C305.335 900.768 304.845 900.853 304.365 901.024C303.885 901.184 303.479 901.403 303.149 901.68L302.509 900.528C302.946 900.176 303.469 899.909 304.077 899.728C304.695 899.536 305.341 899.44 306.013 899.44C307.175 899.44 308.071 899.723 308.701 900.288C309.33 900.853 309.645 901.717 309.645 902.88V908H308.189ZM305.405 908.096C304.775 908.096 304.221 907.989 303.741 907.776C303.271 907.563 302.909 907.269 302.653 906.896C302.397 906.512 302.269 906.08 302.269 905.6C302.269 905.141 302.375 904.725 302.589 904.352C302.813 903.979 303.17 903.68 303.661 903.456C304.162 903.232 304.834 903.12 305.677 903.12H308.365V904.224H305.741C304.973 904.224 304.455 904.352 304.189 904.608C303.922 904.864 303.789 905.173 303.789 905.536C303.789 905.952 303.954 906.288 304.285 906.544C304.615 906.789 305.074 906.912 305.661 906.912C306.237 906.912 306.738 906.784 307.165 906.528C307.602 906.272 307.917 905.899 308.109 905.408L308.413 906.464C308.21 906.965 307.853 907.365 307.341 907.664C306.829 907.952 306.183 908.096 305.405 908.096ZM312.699 911.2C312.294 911.2 311.899 911.131 311.515 910.992C311.131 910.864 310.8 910.672 310.523 910.416L311.179 909.264C311.392 909.467 311.627 909.621 311.883 909.728C312.139 909.835 312.411 909.888 312.699 909.888C313.072 909.888 313.382 909.792 313.627 909.6C313.872 909.408 314.102 909.067 314.315 908.576L314.843 907.408L315.003 907.216L318.331 899.52H319.835L315.723 908.848C315.478 909.445 315.2 909.915 314.891 910.256C314.592 910.597 314.262 910.837 313.899 910.976C313.536 911.125 313.136 911.2 312.699 911.2ZM314.715 908.272L310.843 899.52H312.443L315.739 907.072L314.715 908.272ZM325.789 908V898.768C325.789 897.936 326.029 897.275 326.509 896.784C327 896.283 327.693 896.032 328.589 896.032C328.92 896.032 329.235 896.075 329.533 896.16C329.843 896.235 330.104 896.357 330.317 896.528L329.853 897.696C329.693 897.568 329.512 897.472 329.309 897.408C329.107 897.333 328.893 897.296 328.669 897.296C328.221 897.296 327.88 897.424 327.645 897.68C327.411 897.925 327.293 898.293 327.293 898.784V899.92L327.325 900.624V908H325.789ZM324.349 900.784V899.52H329.757V900.784H324.349ZM331.206 908V899.52H332.678V901.824L332.534 901.248C332.769 900.661 333.163 900.213 333.718 899.904C334.273 899.595 334.955 899.44 335.766 899.44V900.928C335.702 900.917 335.638 900.912 335.574 900.912C335.521 900.912 335.467 900.912 335.414 900.912C334.593 900.912 333.942 901.157 333.462 901.648C332.982 902.139 332.742 902.848 332.742 903.776V908H331.206ZM341.213 908.096C340.36 908.096 339.602 907.909 338.941 907.536C338.28 907.163 337.757 906.651 337.373 906C336.989 905.339 336.797 904.592 336.797 903.76C336.797 902.917 336.989 902.171 337.373 901.52C337.757 900.869 338.28 900.363 338.941 900C339.602 899.627 340.36 899.44 341.213 899.44C342.056 899.44 342.808 899.627 343.469 900C344.141 900.363 344.664 900.869 345.037 901.52C345.421 902.16 345.613 902.907 345.613 903.76C345.613 904.603 345.421 905.349 345.037 906C344.664 906.651 344.141 907.163 343.469 907.536C342.808 907.909 342.056 908.096 341.213 908.096ZM341.213 906.752C341.757 906.752 342.242 906.629 342.669 906.384C343.106 906.139 343.448 905.792 343.693 905.344C343.938 904.885 344.061 904.357 344.061 903.76C344.061 903.152 343.938 902.629 343.693 902.192C343.448 901.744 343.106 901.397 342.669 901.152C342.242 900.907 341.757 900.784 341.213 900.784C340.669 900.784 340.184 900.907 339.757 901.152C339.33 901.397 338.989 901.744 338.733 902.192C338.477 902.629 338.349 903.152 338.349 903.76C338.349 904.357 338.477 904.885 338.733 905.344C338.989 905.792 339.33 906.139 339.757 906.384C340.184 906.629 340.669 906.752 341.213 906.752ZM358.345 899.44C359.028 899.44 359.631 899.573 360.153 899.84C360.676 900.107 361.081 900.512 361.369 901.056C361.668 901.6 361.817 902.288 361.817 903.12V908H360.281V903.296C360.281 902.475 360.089 901.856 359.705 901.44C359.321 901.024 358.783 900.816 358.089 900.816C357.577 900.816 357.129 900.923 356.745 901.136C356.361 901.349 356.063 901.664 355.849 902.08C355.647 902.496 355.545 903.013 355.545 903.632V908H354.009V903.296C354.009 902.475 353.817 901.856 353.433 901.44C353.06 901.024 352.521 900.816 351.817 900.816C351.316 900.816 350.873 900.923 350.489 901.136C350.105 901.349 349.807 901.664 349.593 902.08C349.38 902.496 349.273 903.013 349.273 903.632V908H347.737V899.52H349.209V901.776L348.969 901.2C349.236 900.645 349.647 900.213 350.201 899.904C350.756 899.595 351.401 899.44 352.137 899.44C352.948 899.44 353.647 899.643 354.233 900.048C354.82 900.443 355.204 901.045 355.385 901.856L354.761 901.6C355.017 900.949 355.465 900.427 356.105 900.032C356.745 899.637 357.492 899.44 358.345 899.44ZM368.94 908V899.52H370.412V901.824L370.268 901.248C370.503 900.661 370.898 900.213 371.452 899.904C372.007 899.595 372.69 899.44 373.5 899.44V900.928C373.436 900.917 373.372 900.912 373.308 900.912C373.255 900.912 373.202 900.912 373.148 900.912C372.327 900.912 371.676 901.157 371.196 901.648C370.716 902.139 370.476 902.848 370.476 903.776V908H368.94ZM379.091 908.096C378.185 908.096 377.385 907.909 376.691 907.536C376.009 907.163 375.475 906.651 375.091 906C374.718 905.349 374.531 904.603 374.531 903.76C374.531 902.917 374.713 902.171 375.075 901.52C375.449 900.869 375.955 900.363 376.595 900C377.246 899.627 377.977 899.44 378.787 899.44C379.609 899.44 380.334 899.621 380.963 899.984C381.593 900.347 382.083 900.859 382.435 901.52C382.798 902.171 382.979 902.933 382.979 903.808C382.979 903.872 382.974 903.947 382.963 904.032C382.963 904.117 382.958 904.197 382.947 904.272H375.731V903.168H382.147L381.523 903.552C381.534 903.008 381.422 902.523 381.187 902.096C380.953 901.669 380.627 901.339 380.211 901.104C379.806 900.859 379.331 900.736 378.787 900.736C378.254 900.736 377.779 900.859 377.363 901.104C376.947 901.339 376.622 901.675 376.387 902.112C376.153 902.539 376.035 903.029 376.035 903.584V903.84C376.035 904.405 376.163 904.912 376.419 905.36C376.686 905.797 377.054 906.139 377.523 906.384C377.993 906.629 378.531 906.752 379.139 906.752C379.641 906.752 380.094 906.667 380.499 906.496C380.915 906.325 381.278 906.069 381.587 905.728L382.435 906.72C382.051 907.168 381.571 907.509 380.995 907.744C380.43 907.979 379.795 908.096 379.091 908.096ZM388.808 908.096C387.944 908.096 387.171 907.909 386.488 907.536C385.816 907.163 385.288 906.651 384.904 906C384.52 905.349 384.328 904.603 384.328 903.76C384.328 902.917 384.52 902.171 384.904 901.52C385.288 900.869 385.816 900.363 386.488 900C387.171 899.627 387.944 899.44 388.808 899.44C389.576 899.44 390.259 899.595 390.856 899.904C391.464 900.203 391.934 900.651 392.264 901.248L391.096 902C390.819 901.584 390.478 901.28 390.072 901.088C389.678 900.885 389.251 900.784 388.792 900.784C388.238 900.784 387.742 900.907 387.304 901.152C386.867 901.397 386.52 901.744 386.264 902.192C386.008 902.629 385.88 903.152 385.88 903.76C385.88 904.368 386.008 904.896 386.264 905.344C386.52 905.792 386.867 906.139 387.304 906.384C387.742 906.629 388.238 906.752 388.792 906.752C389.251 906.752 389.678 906.656 390.072 906.464C390.478 906.261 390.819 905.952 391.096 905.536L392.264 906.272C391.934 906.859 391.464 907.312 390.856 907.632C390.259 907.941 389.576 908.096 388.808 908.096ZM397.76 908.096C396.907 908.096 396.149 907.909 395.488 907.536C394.827 907.163 394.304 906.651 393.92 906C393.536 905.339 393.344 904.592 393.344 903.76C393.344 902.917 393.536 902.171 393.92 901.52C394.304 900.869 394.827 900.363 395.488 900C396.149 899.627 396.907 899.44 397.76 899.44C398.603 899.44 399.355 899.627 400.016 900C400.688 900.363 401.211 900.869 401.584 901.52C401.968 902.16 402.16 902.907 402.16 903.76C402.16 904.603 401.968 905.349 401.584 906C401.211 906.651 400.688 907.163 400.016 907.536C399.355 907.909 398.603 908.096 397.76 908.096ZM397.76 906.752C398.304 906.752 398.789 906.629 399.216 906.384C399.653 906.139 399.995 905.792 400.24 905.344C400.485 904.885 400.608 904.357 400.608 903.76C400.608 903.152 400.485 902.629 400.24 902.192C399.995 901.744 399.653 901.397 399.216 901.152C398.789 900.907 398.304 900.784 397.76 900.784C397.216 900.784 396.731 900.907 396.304 901.152C395.877 901.397 395.536 901.744 395.28 902.192C395.024 902.629 394.896 903.152 394.896 903.76C394.896 904.357 395.024 904.885 395.28 905.344C395.536 905.792 395.877 906.139 396.304 906.384C396.731 906.629 397.216 906.752 397.76 906.752ZM406.274 908L402.562 899.52H404.162L407.458 907.2H406.69L410.05 899.52H411.554L407.842 908H406.274ZM416.529 908.096C415.622 908.096 414.822 907.909 414.129 907.536C413.446 907.163 412.913 906.651 412.529 906C412.156 905.349 411.969 904.603 411.969 903.76C411.969 902.917 412.15 902.171 412.513 901.52C412.886 900.869 413.393 900.363 414.033 900C414.684 899.627 415.414 899.44 416.225 899.44C417.046 899.44 417.772 899.621 418.401 899.984C419.03 900.347 419.521 900.859 419.873 901.52C420.236 902.171 420.417 902.933 420.417 903.808C420.417 903.872 420.412 903.947 420.401 904.032C420.401 904.117 420.396 904.197 420.385 904.272H413.169V903.168H419.585L418.961 903.552C418.972 903.008 418.86 902.523 418.625 902.096C418.39 901.669 418.065 901.339 417.649 901.104C417.244 900.859 416.769 900.736 416.225 900.736C415.692 900.736 415.217 900.859 414.801 901.104C414.385 901.339 414.06 901.675 413.825 902.112C413.59 902.539 413.473 903.029 413.473 903.584V903.84C413.473 904.405 413.601 904.912 413.857 905.36C414.124 905.797 414.492 906.139 414.961 906.384C415.43 906.629 415.969 906.752 416.577 906.752C417.078 906.752 417.532 906.667 417.937 906.496C418.353 906.325 418.716 906.069 419.025 905.728L419.873 906.72C419.489 907.168 419.009 907.509 418.433 907.744C417.868 907.979 417.233 908.096 416.529 908.096ZM422.55 908V899.52H424.022V901.824L423.878 901.248C424.112 900.661 424.507 900.213 425.062 899.904C425.616 899.595 426.299 899.44 427.11 899.44V900.928C427.046 900.917 426.982 900.912 426.918 900.912C426.864 900.912 426.811 900.912 426.758 900.912C425.936 900.912 425.286 901.157 424.806 901.648C424.326 902.139 424.086 902.848 424.086 903.776V908H422.55ZM429.003 908V899.52H430.539V908H429.003ZM429.771 897.888C429.472 897.888 429.222 897.792 429.019 897.6C428.827 897.408 428.731 897.173 428.731 896.896C428.731 896.608 428.827 896.368 429.019 896.176C429.222 895.984 429.472 895.888 429.771 895.888C430.07 895.888 430.315 895.984 430.507 896.176C430.71 896.357 430.811 896.587 430.811 896.864C430.811 897.152 430.715 897.397 430.523 897.6C430.331 897.792 430.08 897.888 429.771 897.888ZM438 899.44C438.693 899.44 439.301 899.573 439.824 899.84C440.357 900.107 440.773 900.512 441.072 901.056C441.37 901.6 441.52 902.288 441.52 903.12V908H439.984V903.296C439.984 902.475 439.781 901.856 439.376 901.44C438.981 901.024 438.421 900.816 437.696 900.816C437.152 900.816 436.677 900.923 436.272 901.136C435.866 901.349 435.552 901.664 435.328 902.08C435.114 902.496 435.008 903.013 435.008 903.632V908H433.472V899.52H434.944V901.808L434.704 901.2C434.981 900.645 435.408 900.213 435.984 899.904C436.56 899.595 437.232 899.44 438 899.44ZM448.074 911.2C447.296 911.2 446.538 911.088 445.802 910.864C445.077 910.651 444.485 910.341 444.026 909.936L444.762 908.752C445.157 909.093 445.642 909.36 446.218 909.552C446.794 909.755 447.397 909.856 448.026 909.856C449.029 909.856 449.765 909.621 450.234 909.152C450.704 908.683 450.938 907.968 450.938 907.008V905.216L451.098 903.536L451.018 901.84V899.52H452.474V906.848C452.474 908.341 452.101 909.44 451.354 910.144C450.608 910.848 449.514 911.2 448.074 911.2ZM447.882 907.648C447.061 907.648 446.325 907.477 445.674 907.136C445.034 906.784 444.522 906.299 444.138 905.68C443.765 905.061 443.578 904.347 443.578 903.536C443.578 902.715 443.765 902 444.138 901.392C444.522 900.773 445.034 900.293 445.674 899.952C446.325 899.611 447.061 899.44 447.882 899.44C448.608 899.44 449.269 899.589 449.866 899.888C450.464 900.176 450.938 900.624 451.29 901.232C451.653 901.84 451.834 902.608 451.834 903.536C451.834 904.453 451.653 905.216 451.29 905.824C450.938 906.432 450.464 906.891 449.866 907.2C449.269 907.499 448.608 907.648 447.882 907.648ZM448.058 906.304C448.624 906.304 449.125 906.187 449.562 905.952C450 905.717 450.341 905.392 450.586 904.976C450.842 904.56 450.97 904.08 450.97 903.536C450.97 902.992 450.842 902.512 450.586 902.096C450.341 901.68 450 901.36 449.562 901.136C449.125 900.901 448.624 900.784 448.058 900.784C447.493 900.784 446.986 900.901 446.538 901.136C446.101 901.36 445.754 901.68 445.498 902.096C445.253 902.512 445.13 902.992 445.13 903.536C445.13 904.08 445.253 904.56 445.498 904.976C445.754 905.392 446.101 905.717 446.538 905.952C446.986 906.187 447.493 906.304 448.058 906.304ZM460.074 911.2C459.669 911.2 459.274 911.131 458.89 910.992C458.506 910.864 458.175 910.672 457.898 910.416L458.554 909.264C458.767 909.467 459.002 909.621 459.258 909.728C459.514 909.835 459.786 909.888 460.074 909.888C460.447 909.888 460.757 909.792 461.002 909.6C461.247 909.408 461.477 909.067 461.69 908.576L462.218 907.408L462.378 907.216L465.706 899.52H467.21L463.098 908.848C462.853 909.445 462.575 909.915 462.266 910.256C461.967 910.597 461.637 910.837 461.274 910.976C460.911 911.125 460.511 911.2 460.074 911.2ZM462.09 908.272L458.218 899.52H459.818L463.114 907.072L462.09 908.272ZM472.041 908.096C471.188 908.096 470.43 907.909 469.769 907.536C469.108 907.163 468.585 906.651 468.201 906C467.817 905.339 467.625 904.592 467.625 903.76C467.625 902.917 467.817 902.171 468.201 901.52C468.585 900.869 469.108 900.363 469.769 900C470.43 899.627 471.188 899.44 472.041 899.44C472.884 899.44 473.636 899.627 474.297 900C474.969 900.363 475.492 900.869 475.865 901.52C476.249 902.16 476.441 902.907 476.441 903.76C476.441 904.603 476.249 905.349 475.865 906C475.492 906.651 474.969 907.163 474.297 907.536C473.636 907.909 472.884 908.096 472.041 908.096ZM472.041 906.752C472.585 906.752 473.07 906.629 473.497 906.384C473.934 906.139 474.276 905.792 474.521 905.344C474.766 904.885 474.889 904.357 474.889 903.76C474.889 903.152 474.766 902.629 474.521 902.192C474.276 901.744 473.934 901.397 473.497 901.152C473.07 900.907 472.585 900.784 472.041 900.784C471.497 900.784 471.012 900.907 470.585 901.152C470.158 901.397 469.817 901.744 469.561 902.192C469.305 902.629 469.177 903.152 469.177 903.76C469.177 904.357 469.305 904.885 469.561 905.344C469.817 905.792 470.158 906.139 470.585 906.384C471.012 906.629 471.497 906.752 472.041 906.752ZM482.133 908.096C481.408 908.096 480.768 907.963 480.213 907.696C479.669 907.429 479.243 907.024 478.933 906.48C478.635 905.925 478.485 905.232 478.485 904.4V899.52H480.021V904.224C480.021 905.056 480.219 905.68 480.613 906.096C481.019 906.512 481.584 906.72 482.309 906.72C482.843 906.72 483.307 906.613 483.701 906.4C484.096 906.176 484.4 905.856 484.613 905.44C484.827 905.013 484.933 904.501 484.933 903.904V899.52H486.469V908H485.013V905.712L485.253 906.32C484.976 906.885 484.56 907.323 484.005 907.632C483.451 907.941 482.827 908.096 482.133 908.096ZM489.394 908V899.52H490.866V901.824L490.722 901.248C490.956 900.661 491.351 900.213 491.906 899.904C492.46 899.595 493.143 899.44 493.954 899.44V900.928C493.89 900.917 493.826 900.912 493.762 900.912C493.708 900.912 493.655 900.912 493.602 900.912C492.78 900.912 492.13 901.157 491.65 901.648C491.17 902.139 490.93 902.848 490.93 903.776V908H489.394ZM504.749 908.096C504.045 908.096 503.4 907.936 502.813 907.616C502.237 907.285 501.773 906.8 501.421 906.16C501.08 905.52 500.909 904.72 500.909 903.76C500.909 902.8 501.074 902 501.405 901.36C501.746 900.72 502.205 900.24 502.781 899.92C503.368 899.6 504.024 899.44 504.749 899.44C505.581 899.44 506.317 899.621 506.957 899.984C507.597 900.347 508.104 900.853 508.477 901.504C508.85 902.144 509.037 902.896 509.037 903.76C509.037 904.624 508.85 905.381 508.477 906.032C508.104 906.683 507.597 907.189 506.957 907.552C506.317 907.915 505.581 908.096 504.749 908.096ZM500.253 911.104V899.52H501.725V901.808L501.629 903.776L501.789 905.744V911.104H500.253ZM504.621 906.752C505.165 906.752 505.65 906.629 506.077 906.384C506.514 906.139 506.856 905.792 507.101 905.344C507.357 904.885 507.485 904.357 507.485 903.76C507.485 903.152 507.357 902.629 507.101 902.192C506.856 901.744 506.514 901.397 506.077 901.152C505.65 900.907 505.165 900.784 504.621 900.784C504.088 900.784 503.602 900.907 503.165 901.152C502.738 901.397 502.397 901.744 502.141 902.192C501.896 902.629 501.773 903.152 501.773 903.76C501.773 904.357 501.896 904.885 502.141 905.344C502.397 905.792 502.738 906.139 503.165 906.384C503.602 906.629 504.088 906.752 504.621 906.752ZM516.345 908V906.208L516.265 905.872V902.816C516.265 902.165 516.073 901.664 515.689 901.312C515.316 900.949 514.75 900.768 513.993 900.768C513.492 900.768 513.001 900.853 512.521 901.024C512.041 901.184 511.636 901.403 511.305 901.68L510.665 900.528C511.102 900.176 511.625 899.909 512.233 899.728C512.852 899.536 513.497 899.44 514.169 899.44C515.332 899.44 516.228 899.723 516.857 900.288C517.486 900.853 517.801 901.717 517.801 902.88V908H516.345ZM513.561 908.096C512.932 908.096 512.377 907.989 511.897 907.776C511.428 907.563 511.065 907.269 510.809 906.896C510.553 906.512 510.425 906.08 510.425 905.6C510.425 905.141 510.532 904.725 510.745 904.352C510.969 903.979 511.326 903.68 511.817 903.456C512.318 903.232 512.99 903.12 513.833 903.12H516.521V904.224H513.897C513.129 904.224 512.612 904.352 512.345 904.608C512.078 904.864 511.945 905.173 511.945 905.536C511.945 905.952 512.11 906.288 512.441 906.544C512.772 906.789 513.23 906.912 513.817 906.912C514.393 906.912 514.894 906.784 515.321 906.528C515.758 906.272 516.073 905.899 516.265 905.408L516.569 906.464C516.366 906.965 516.009 907.365 515.497 907.664C514.985 907.952 514.34 908.096 513.561 908.096ZM523.076 908.096C522.372 908.096 521.7 908 521.06 907.808C520.43 907.616 519.934 907.381 519.572 907.104L520.212 905.888C520.574 906.133 521.022 906.341 521.556 906.512C522.089 906.683 522.633 906.768 523.188 906.768C523.902 906.768 524.414 906.667 524.724 906.464C525.044 906.261 525.204 905.979 525.204 905.616C525.204 905.349 525.108 905.141 524.916 904.992C524.724 904.843 524.468 904.731 524.148 904.656C523.838 904.581 523.492 904.517 523.108 904.464C522.724 904.4 522.34 904.325 521.956 904.24C521.572 904.144 521.22 904.016 520.9 903.856C520.58 903.685 520.324 903.456 520.132 903.168C519.94 902.869 519.844 902.475 519.844 901.984C519.844 901.472 519.988 901.024 520.276 900.64C520.564 900.256 520.969 899.963 521.492 899.76C522.025 899.547 522.654 899.44 523.38 899.44C523.934 899.44 524.494 899.509 525.06 899.648C525.636 899.776 526.105 899.963 526.468 900.208L525.812 901.424C525.428 901.168 525.028 900.992 524.612 900.896C524.196 900.8 523.78 900.752 523.364 900.752C522.692 900.752 522.19 900.864 521.86 901.088C521.529 901.301 521.364 901.579 521.364 901.92C521.364 902.208 521.46 902.432 521.652 902.592C521.854 902.741 522.11 902.859 522.42 902.944C522.74 903.029 523.092 903.104 523.476 903.168C523.86 903.221 524.244 903.296 524.628 903.392C525.012 903.477 525.358 903.6 525.668 903.76C525.988 903.92 526.244 904.144 526.436 904.432C526.638 904.72 526.74 905.104 526.74 905.584C526.74 906.096 526.59 906.539 526.292 906.912C525.993 907.285 525.572 907.579 525.028 907.792C524.484 907.995 523.833 908.096 523.076 908.096ZM531.091 908.096C530.387 908.096 529.715 908 529.075 907.808C528.446 907.616 527.95 907.381 527.587 907.104L528.227 905.888C528.59 906.133 529.038 906.341 529.571 906.512C530.104 906.683 530.648 906.768 531.203 906.768C531.918 906.768 532.43 906.667 532.739 906.464C533.059 906.261 533.219 905.979 533.219 905.616C533.219 905.349 533.123 905.141 532.931 904.992C532.739 904.843 532.483 904.731 532.163 904.656C531.854 904.581 531.507 904.517 531.123 904.464C530.739 904.4 530.355 904.325 529.971 904.24C529.587 904.144 529.235 904.016 528.915 903.856C528.595 903.685 528.339 903.456 528.147 903.168C527.955 902.869 527.859 902.475 527.859 901.984C527.859 901.472 528.003 901.024 528.291 900.64C528.579 900.256 528.984 899.963 529.507 899.76C530.04 899.547 530.67 899.44 531.395 899.44C531.95 899.44 532.51 899.509 533.075 899.648C533.651 899.776 534.12 899.963 534.483 900.208L533.827 901.424C533.443 901.168 533.043 900.992 532.627 900.896C532.211 900.8 531.795 900.752 531.379 900.752C530.707 900.752 530.206 900.864 529.875 901.088C529.544 901.301 529.379 901.579 529.379 901.92C529.379 902.208 529.475 902.432 529.667 902.592C529.87 902.741 530.126 902.859 530.435 902.944C530.755 903.029 531.107 903.104 531.491 903.168C531.875 903.221 532.259 903.296 532.643 903.392C533.027 903.477 533.374 903.6 533.683 903.76C534.003 903.92 534.259 904.144 534.451 904.432C534.654 904.72 534.755 905.104 534.755 905.584C534.755 906.096 534.606 906.539 534.307 906.912C534.008 907.285 533.587 907.579 533.043 907.792C532.499 907.995 531.848 908.096 531.091 908.096ZM538.311 908L535.159 899.52H536.615L539.415 907.2H538.727L541.639 899.52H542.935L545.783 907.2H545.111L547.975 899.52H549.351L546.183 908H544.711L542.039 900.992H542.487L539.783 908H538.311ZM554.307 908.096C553.453 908.096 552.696 907.909 552.035 907.536C551.373 907.163 550.851 906.651 550.467 906C550.083 905.339 549.891 904.592 549.891 903.76C549.891 902.917 550.083 902.171 550.467 901.52C550.851 900.869 551.373 900.363 552.035 900C552.696 899.627 553.453 899.44 554.307 899.44C555.149 899.44 555.901 899.627 556.563 900C557.235 900.363 557.757 900.869 558.131 901.52C558.515 902.16 558.707 902.907 558.707 903.76C558.707 904.603 558.515 905.349 558.131 906C557.757 906.651 557.235 907.163 556.563 907.536C555.901 907.909 555.149 908.096 554.307 908.096ZM554.307 906.752C554.851 906.752 555.336 906.629 555.763 906.384C556.2 906.139 556.541 905.792 556.787 905.344C557.032 904.885 557.155 904.357 557.155 903.76C557.155 903.152 557.032 902.629 556.787 902.192C556.541 901.744 556.2 901.397 555.763 901.152C555.336 900.907 554.851 900.784 554.307 900.784C553.763 900.784 553.277 900.907 552.851 901.152C552.424 901.397 552.083 901.744 551.827 902.192C551.571 902.629 551.443 903.152 551.443 903.76C551.443 904.357 551.571 904.885 551.827 905.344C552.083 905.792 552.424 906.139 552.851 906.384C553.277 906.629 553.763 906.752 554.307 906.752ZM560.831 908V899.52H562.303V901.824L562.159 901.248C562.394 900.661 562.788 900.213 563.343 899.904C563.898 899.595 564.58 899.44 565.391 899.44V900.928C565.327 900.917 565.263 900.912 565.199 900.912C565.146 900.912 565.092 900.912 565.039 900.912C564.218 900.912 563.567 901.157 563.087 901.648C562.607 902.139 562.367 902.848 562.367 903.776V908H560.831ZM570.71 908.096C569.889 908.096 569.153 907.915 568.502 907.552C567.862 907.189 567.355 906.683 566.982 906.032C566.609 905.381 566.422 904.624 566.422 903.76C566.422 902.896 566.609 902.144 566.982 901.504C567.355 900.853 567.862 900.347 568.502 899.984C569.153 899.621 569.889 899.44 570.71 899.44C571.425 899.44 572.07 899.6 572.646 899.92C573.222 900.24 573.681 900.72 574.022 901.36C574.374 902 574.55 902.8 574.55 903.76C574.55 904.72 574.379 905.52 574.038 906.16C573.707 906.8 573.254 907.285 572.678 907.616C572.102 907.936 571.446 908.096 570.71 908.096ZM570.838 906.752C571.371 906.752 571.851 906.629 572.278 906.384C572.715 906.139 573.057 905.792 573.302 905.344C573.558 904.885 573.686 904.357 573.686 903.76C573.686 903.152 573.558 902.629 573.302 902.192C573.057 901.744 572.715 901.397 572.278 901.152C571.851 900.907 571.371 900.784 570.838 900.784C570.294 900.784 569.809 900.907 569.382 901.152C568.955 901.397 568.614 901.744 568.358 902.192C568.102 902.629 567.974 903.152 567.974 903.76C567.974 904.357 568.102 904.885 568.358 905.344C568.614 905.792 568.955 906.139 569.382 906.384C569.809 906.629 570.294 906.752 570.838 906.752ZM573.734 908V905.712L573.83 903.744L573.67 901.776V896.128H575.206V908H573.734ZM578.48 908.096C578.182 908.096 577.926 907.995 577.712 907.792C577.499 907.579 577.392 907.312 577.392 906.992C577.392 906.672 577.499 906.411 577.712 906.208C577.926 906.005 578.182 905.904 578.48 905.904C578.768 905.904 579.014 906.005 579.216 906.208C579.43 906.411 579.536 906.672 579.536 906.992C579.536 907.312 579.43 907.579 579.216 907.792C579.014 907.995 578.768 908.096 578.48 908.096Z" fill="#E0EAFF" fill-opacity="0.75"/>
<g clip-path="url(#clip0_0_143)">
<path d="M170.121 732C239.776 732 296.242 727.706 296.242 722.408C296.242 717.111 239.776 712.817 170.121 712.817C100.466 712.817 44 717.111 44 722.408C44 727.706 100.466 732 170.121 732Z" fill="#E6E6E6"/>
<path d="M140.405 388.85C162.353 379.502 189.691 385.425 216.389 389.536C216.638 384.558 219.649 378.499 216.495 375.026C212.662 370.807 213.015 366.373 215.321 361.914C221.218 350.512 212.769 338.38 204.238 328.292C202.315 326.023 199.885 324.241 197.145 323.089C194.405 321.938 191.433 321.45 188.469 321.664L172.666 322.795C168.82 323.07 165.15 324.514 162.147 326.935C159.144 329.356 156.951 332.637 155.861 336.34C152.087 341.479 150.068 346.603 151.339 351.701C145.687 355.569 144.737 360.238 147.277 365.501C149.431 368.815 149.408 372.04 147.179 375.177C144.252 379.175 142.011 383.634 140.546 388.37L140.405 388.85Z" fill="#2F2E41"/>
<path d="M662 672.237H214.655C210.677 672.237 206.862 670.655 204.049 667.838C201.236 665.021 199.656 661.201 199.656 657.218C361.818 638.346 520.933 638.346 677 657.218C677 661.201 675.42 665.021 672.607 667.838C669.794 670.655 665.978 672.237 662 672.237Z" fill="#2F2E41"/>
<path d="M677 658.101L199.656 657.218L254.978 564.007L255.243 563.565V358.138C255.243 355.645 255.733 353.176 256.686 350.872C257.639 348.569 259.035 346.475 260.796 344.712C262.557 342.949 264.647 341.551 266.948 340.597C269.249 339.642 271.714 339.151 274.204 339.152H599.804C602.294 339.151 604.76 339.642 607.061 340.597C609.361 341.551 611.452 342.949 613.213 344.712C614.973 346.475 616.37 348.569 617.323 350.872C618.276 353.176 618.766 355.645 618.766 358.138V564.978L677 658.101Z" fill="#3F3D56"/>
<path d="M273.772 352.404C272.135 352.406 270.565 353.058 269.407 354.218C268.249 355.377 267.598 356.949 267.596 358.589V545.895C267.598 547.534 268.249 549.106 269.407 550.266C270.565 551.425 272.135 552.077 273.772 552.079H602.884C604.521 552.077 606.091 551.425 607.249 550.266C608.407 549.106 609.058 547.534 609.06 545.895V358.589C609.058 356.949 608.407 355.377 607.249 354.218C606.091 353.059 604.521 352.406 602.884 352.404H273.772Z" fill="white"/>
<path d="M275.151 576.818C274.645 576.818 274.15 576.964 273.724 577.238C273.298 577.511 272.959 577.9 272.746 578.36L255.7 615.468C255.514 615.872 255.433 616.316 255.464 616.759C255.494 617.203 255.636 617.631 255.875 618.006C256.115 618.38 256.444 618.688 256.834 618.901C257.223 619.115 257.66 619.226 258.104 619.226H616.585C617.036 619.226 617.48 619.111 617.874 618.891C618.268 618.671 618.599 618.354 618.836 617.969C619.074 617.585 619.209 617.146 619.229 616.695C619.249 616.243 619.154 615.794 618.952 615.39L600.423 578.283C600.204 577.842 599.867 577.47 599.448 577.212C599.03 576.953 598.548 576.816 598.056 576.818H275.151Z" fill="#2F2E41"/>
<path d="M437.004 349.312C439.197 349.312 440.975 347.532 440.975 345.336C440.975 343.14 439.197 341.36 437.004 341.36C434.811 341.36 433.034 343.14 433.034 345.336C433.034 347.532 434.811 349.312 437.004 349.312Z" fill="white"/>
<path d="M401.769 626.295C401.187 626.295 400.621 626.488 400.159 626.842C399.698 627.197 399.365 627.693 399.213 628.256L394.937 644.159C394.831 644.552 394.817 644.964 394.896 645.363C394.975 645.762 395.145 646.138 395.392 646.461C395.639 646.784 395.957 647.045 396.321 647.225C396.685 647.405 397.086 647.499 397.493 647.499H478.812C479.234 647.499 479.65 647.398 480.025 647.204C480.4 647.011 480.723 646.73 480.968 646.386C481.213 646.041 481.372 645.644 481.432 645.225C481.492 644.807 481.451 644.381 481.313 643.981L475.815 628.078C475.635 627.557 475.297 627.106 474.849 626.786C474.401 626.467 473.864 626.295 473.314 626.295H401.769Z" fill="#2F2E41"/>
<path d="M618.766 560.473V564.006H254.978L255.252 563.565V560.473H618.766Z" fill="#2F2E41"/>
<path d="M608.619 414.692C642.73 414.692 670.382 387.003 670.382 352.846C670.382 318.689 642.73 291 608.619 291C574.508 291 546.855 318.689 546.855 352.846C546.855 387.003 574.508 414.692 608.619 414.692Z" fill="#A4BCFD"/>
<path d="M634.207 379.793H583.031C582.095 379.793 581.198 379.42 580.536 378.757C579.875 378.095 579.503 377.196 579.502 376.259V345.336C579.503 344.399 579.875 343.501 580.537 342.838C581.198 342.176 582.095 341.803 583.031 341.802H634.207C635.142 341.803 636.039 342.176 636.701 342.838C637.363 343.501 637.735 344.399 637.736 345.336V376.259C637.735 377.196 637.363 378.095 636.701 378.757C636.039 379.42 635.142 379.793 634.207 379.793ZM583.031 345.336V376.259H634.209L634.207 345.336L583.031 345.336Z" fill="white"/>
<path d="M624.501 345.336H592.737V331.2C592.737 320.961 599.416 313.53 608.619 313.53C617.821 313.53 624.501 320.961 624.501 331.2L624.501 345.336ZM596.266 341.802H620.972V331.2C620.972 322.877 615.892 317.064 608.619 317.064C601.346 317.064 596.266 322.877 596.266 331.2L596.266 341.802Z" fill="white"/>
<path d="M608.619 363.448C610.568 363.448 612.148 361.866 612.148 359.914C612.148 357.962 610.568 356.38 608.619 356.38C606.67 356.38 605.09 357.962 605.09 359.914C605.09 361.866 606.67 363.448 608.619 363.448Z" fill="white"/>
<path d="M565.503 488.547H311.153C309.904 488.546 308.707 488.048 307.824 487.164C306.941 486.28 306.445 485.081 306.443 483.831V420.653C306.445 419.403 306.941 418.204 307.824 417.32C308.707 416.435 309.904 415.938 311.153 415.937H565.503C566.751 415.938 567.949 416.435 568.832 417.32C569.715 418.204 570.211 419.403 570.213 420.653V483.831C570.211 485.081 569.715 486.28 568.832 487.164C567.949 488.048 566.751 488.546 565.503 488.547ZM311.153 417.823C310.404 417.824 309.686 418.122 309.156 418.653C308.626 419.183 308.328 419.903 308.327 420.653V483.831C308.328 484.581 308.626 485.3 309.156 485.831C309.686 486.361 310.404 486.66 311.153 486.66H565.503C566.252 486.66 566.97 486.361 567.5 485.831C568.03 485.3 568.328 484.581 568.329 483.831V420.653C568.328 419.903 568.03 419.183 567.5 418.653C566.97 418.122 566.252 417.824 565.503 417.823L311.153 417.823Z" fill="#E6E6E6"/>
<path d="M350.674 469.03C361.27 469.03 369.861 460.428 369.861 449.818C369.861 439.207 361.27 430.605 350.674 430.605C340.077 430.605 331.487 439.207 331.487 449.818C331.487 460.428 340.077 469.03 350.674 469.03Z" fill="#E6E6E6"/>
<path d="M394.986 437.009C394.566 437.009 394.149 437.091 393.761 437.252C393.372 437.412 393.019 437.648 392.722 437.945C392.424 438.243 392.188 438.596 392.027 438.985C391.866 439.374 391.783 439.791 391.783 440.211C391.783 440.632 391.866 441.049 392.027 441.438C392.188 441.827 392.424 442.18 392.722 442.477C393.019 442.775 393.372 443.011 393.761 443.171C394.149 443.332 394.566 443.414 394.986 443.414H545.739C546.587 443.414 547.4 443.076 548 442.476C548.6 441.875 548.937 441.061 548.937 440.211C548.937 439.362 548.6 438.548 548 437.947C547.4 437.347 546.587 437.009 545.739 437.009H394.986Z" fill="#E6E6E6"/>
<path d="M394.986 456.222C394.138 456.222 393.325 456.559 392.725 457.16C392.125 457.76 391.788 458.575 391.788 459.424C391.788 460.273 392.125 461.088 392.725 461.688C393.325 462.289 394.138 462.626 394.986 462.626H459.855C460.704 462.626 461.517 462.289 462.117 461.688C462.716 461.088 463.053 460.273 463.053 459.424C463.053 458.575 462.716 457.76 462.117 457.16C461.517 456.559 460.704 456.222 459.855 456.222H394.986Z" fill="#E6E6E6"/>
<path d="M254.352 457.517L207.334 482.548L206.739 461.689C222.085 459.124 236.686 454.657 250.186 447.386L255.104 435.22C255.64 433.895 256.51 432.731 257.631 431.845C258.751 430.958 260.083 430.378 261.495 430.162C262.906 429.946 264.35 430.102 265.684 430.613C267.017 431.125 268.195 431.975 269.102 433.08C270.428 434.697 271.091 436.758 270.957 438.846C270.822 440.934 269.9 442.893 268.377 444.325L254.352 457.517Z" fill="#FFB8B8"/>
<path d="M139.467 602.035C139.124 600.775 139.052 599.457 139.254 598.167C139.456 596.877 139.928 595.645 140.64 594.551L150.969 578.678C153.412 574.924 157.16 572.212 161.487 571.069C165.814 569.926 170.411 570.433 174.385 572.492C170.044 579.891 170.649 586.382 175.884 592.022C167.758 595.995 160.247 601.122 153.585 607.245C152.368 608.075 150.972 608.602 149.511 608.783C148.05 608.963 146.567 608.791 145.186 608.281C143.804 607.771 142.565 606.939 141.57 605.852C140.576 604.765 139.855 603.457 139.467 602.035Z" fill="#2F2E41"/>
<path d="M256.494 581.281C254.931 583.89 252.725 586.052 250.087 587.561C247.449 589.069 244.468 589.874 241.43 589.897L172.814 590.417L169.838 573.134L200.192 564.195L174.6 544.528L202.572 511.75L253.38 559.168C256.35 561.939 258.279 565.648 258.846 569.673C259.413 573.698 258.582 577.796 256.494 581.281Z" fill="#2F2E41"/>
<path d="M162.101 699.479H146.031C131.603 600.448 116.917 501.139 160.315 464.073L211.5 472.416L204.953 515.922L176.385 548.7L162.101 699.479Z" fill="#2F2E41"/>
<path d="M176.227 721.913C174.969 722.256 173.653 722.329 172.364 722.127C171.076 721.925 169.845 721.452 168.753 720.739L151.305 718.391C147.555 715.945 144.847 712.191 143.705 707.859C142.563 703.526 143.07 698.923 145.125 694.943C152.515 699.29 158.996 698.683 164.629 693.441C168.609 701.488 175.167 700.997 181.429 707.777C182.258 708.994 182.785 710.393 182.965 711.856C183.145 713.319 182.974 714.804 182.465 716.187C181.956 717.57 181.124 718.811 180.039 719.807C178.954 720.803 177.647 721.525 176.227 721.913Z" fill="#2F2E41"/>
<path d="M200.192 397.92L170.433 390.769C175.376 380.639 175.783 369.367 173.409 357.395L193.645 356.799C194.279 371.686 196.197 385.595 200.192 397.92Z" fill="#FFB8B8"/>
<path d="M208.371 490.36C186.707 505.142 171.401 490.866 159.72 468.84C161.343 455.363 158.715 439.234 153.848 421.709C151.683 413.979 152.491 405.717 156.113 398.555C159.734 391.392 165.906 385.85 173.409 383.021L199.001 393.749C220.732 411.486 225.01 430.698 216.857 450.961L208.371 490.36Z" fill="#A4BCFD"/>
<path d="M146.031 412.82L122.225 425.335L164.482 450.365L170.361 464.888C170.754 465.858 170.945 466.897 170.923 467.943C170.902 468.988 170.667 470.019 170.235 470.971C169.803 471.923 169.181 472.777 168.408 473.481C167.636 474.184 166.728 474.723 165.74 475.064C164.618 475.452 163.421 475.574 162.243 475.421C161.066 475.268 159.94 474.844 158.953 474.183C157.966 473.521 157.146 472.64 156.556 471.608C155.966 470.576 155.623 469.422 155.554 468.235L154.959 458.113L101.251 440.366C99.4411 439.768 97.7911 438.765 96.4258 437.434C95.0604 436.103 94.0154 434.478 93.3699 432.683C92.4291 430.066 92.3812 427.211 93.2338 424.564C94.0863 421.917 95.7912 419.627 98.0816 418.054L141.27 388.385L146.031 412.82Z" fill="#FFB8B8"/>
<path d="M169.838 415.204C159.909 410.846 150.881 415.58 139.484 419.375L137.699 387.789C149.015 381.75 159.804 380.121 169.838 384.809L169.838 415.204Z" fill="#A4BCFD"/>
<path d="M181.715 372.445C192.209 372.445 200.715 363.927 200.715 353.419C200.715 342.912 192.209 334.394 181.715 334.394C171.222 334.394 162.716 342.912 162.716 353.419C162.716 363.927 171.222 372.445 181.715 372.445Z" fill="#FFB8B8"/>
<path d="M204.445 351.019C185.634 352.864 171.3 349.783 162.139 341.012V333.948H202.849L204.445 351.019Z" fill="#2F2E41"/>
</g>
<defs>
<radialGradient id="paint0_radial_0_143" cx="0" cy="0" r="1" gradientUnits="userSpaceOnUse" gradientTransform="translate(360 512) rotate(90) scale(303)">
<stop stop-color="#444CE7" stop-opacity="0.81"/>
<stop offset="1" stop-color="#444CE7" stop-opacity="0.29"/>
</radialGradient>
<linearGradient id="paint1_linear_0_143" x1="232.047" y1="209" x2="417.757" y2="806.559" gradientUnits="userSpaceOnUse">
<stop stop-color="#444CE7" stop-opacity="0.81"/>
<stop offset="1" stop-opacity="0"/>
</linearGradient>
<radialGradient id="paint2_radial_0_143" cx="0" cy="0" r="1" gradientUnits="userSpaceOnUse" gradientTransform="translate(360 511) rotate(90) scale(264)">
<stop stop-color="#444CE7" stop-opacity="0.81"/>
<stop offset="1" stop-color="#444CE7" stop-opacity="0.29"/>
</radialGradient>
<linearGradient id="paint3_linear_0_143" x1="360" y1="247" x2="413.333" y2="745.667" gradientUnits="userSpaceOnUse">
<stop stop-color="#A4BCFD"/>
<stop offset="1" stop-color="#444CE7" stop-opacity="0.81"/>
</linearGradient>
<clipPath id="clip0_0_143">
<rect width="633" height="441" fill="white" transform="translate(44 291)"/>
</clipPath>
</defs>
</svg>
