<svg width="453" height="26" viewBox="0 0 453 26" fill="none" xmlns="http://www.w3.org/2000/svg">
<line y1="12.5" x2="120" y2="12.5" stroke="#71717A"/>
<path d="M189.291 17.5L186.336 9.55H187.701L190.326 16.75H189.681L192.411 9.55H193.626L196.296 16.75H195.666L198.351 9.55H199.641L196.671 17.5H195.291L192.786 10.93H193.206L190.671 17.5H189.291ZM201.102 17.5V9.55H202.542V17.5H201.102ZM201.822 8.02C201.542 8.02 201.307 7.93 201.117 7.75C200.937 7.57 200.847 7.35 200.847 7.09C200.847 6.82 200.937 6.595 201.117 6.415C201.307 6.235 201.542 6.145 201.822 6.145C202.102 6.145 202.332 6.235 202.512 6.415C202.702 6.585 202.797 6.8 202.797 7.06C202.797 7.33 202.707 7.56 202.527 7.75C202.347 7.93 202.112 8.02 201.822 8.02ZM208.022 17.59C207.222 17.59 206.602 17.375 206.162 16.945C205.722 16.515 205.502 15.9 205.502 15.1V7.81H206.942V15.04C206.942 15.47 207.047 15.8 207.257 16.03C207.477 16.26 207.787 16.375 208.187 16.375C208.637 16.375 209.012 16.25 209.312 16L209.762 17.035C209.542 17.225 209.277 17.365 208.967 17.455C208.667 17.545 208.352 17.59 208.022 17.59ZM204.152 10.735V9.55H209.222V10.735H204.152ZM215.748 9.475C216.398 9.475 216.968 9.6 217.458 9.85C217.958 10.1 218.348 10.48 218.628 10.99C218.908 11.5 219.048 12.145 219.048 12.925V17.5H217.608V13.09C217.608 12.32 217.418 11.74 217.038 11.35C216.668 10.96 216.143 10.765 215.463 10.765C214.953 10.765 214.508 10.865 214.128 11.065C213.748 11.265 213.453 11.56 213.243 11.95C213.043 12.34 212.943 12.825 212.943 13.405V17.5H211.503V6.37H212.943V11.695L212.658 11.125C212.918 10.605 213.318 10.2 213.858 9.91C214.398 9.62 215.028 9.475 215.748 9.475ZM229.281 17.59C228.431 17.59 227.681 17.415 227.031 17.065C226.391 16.715 225.891 16.235 225.531 15.625C225.181 15.015 225.006 14.315 225.006 13.525C225.006 12.735 225.176 12.035 225.516 11.425C225.866 10.815 226.341 10.34 226.941 10C227.551 9.65 228.236 9.475 228.996 9.475C229.766 9.475 230.446 9.645 231.036 9.985C231.626 10.325 232.086 10.805 232.416 11.425C232.756 12.035 232.926 12.75 232.926 13.57C232.926 13.63 232.921 13.7 232.911 13.78C232.911 13.86 232.906 13.935 232.896 14.005H226.131V12.97H232.146L231.561 13.33C231.571 12.82 231.466 12.365 231.246 11.965C231.026 11.565 230.721 11.255 230.331 11.035C229.951 10.805 229.506 10.69 228.996 10.69C228.496 10.69 228.051 10.805 227.661 11.035C227.271 11.255 226.966 11.57 226.746 11.98C226.526 12.38 226.416 12.84 226.416 13.36V13.6C226.416 14.13 226.536 14.605 226.776 15.025C227.026 15.435 227.371 15.755 227.811 15.985C228.251 16.215 228.756 16.33 229.326 16.33C229.796 16.33 230.221 16.25 230.601 16.09C230.991 15.93 231.331 15.69 231.621 15.37L232.416 16.3C232.056 16.72 231.606 17.04 231.066 17.26C230.536 17.48 229.941 17.59 229.281 17.59ZM244.871 9.475C245.511 9.475 246.076 9.6 246.566 9.85C247.056 10.1 247.436 10.48 247.706 10.99C247.986 11.5 248.126 12.145 248.126 12.925V17.5H246.686V13.09C246.686 12.32 246.506 11.74 246.146 11.35C245.786 10.96 245.281 10.765 244.631 10.765C244.151 10.765 243.731 10.865 243.371 11.065C243.011 11.265 242.731 11.56 242.531 11.95C242.341 12.34 242.246 12.825 242.246 13.405V17.5H240.806V13.09C240.806 12.32 240.626 11.74 240.266 11.35C239.916 10.96 239.411 10.765 238.751 10.765C238.281 10.765 237.866 10.865 237.506 11.065C237.146 11.265 236.866 11.56 236.666 11.95C236.466 12.34 236.366 12.825 236.366 13.405V17.5H234.926V9.55H236.306V11.665L236.081 11.125C236.331 10.605 236.716 10.2 237.236 9.91C237.756 9.62 238.361 9.475 239.051 9.475C239.811 9.475 240.466 9.665 241.016 10.045C241.566 10.415 241.926 10.98 242.096 11.74L241.511 11.5C241.751 10.89 242.171 10.4 242.771 10.03C243.371 9.66 244.071 9.475 244.871 9.475ZM255.71 17.5V15.82L255.635 15.505V12.64C255.635 12.03 255.455 11.56 255.095 11.23C254.745 10.89 254.215 10.72 253.505 10.72C253.035 10.72 252.575 10.8 252.125 10.96C251.675 11.11 251.295 11.315 250.985 11.575L250.385 10.495C250.795 10.165 251.285 9.915 251.855 9.745C252.435 9.565 253.04 9.475 253.67 9.475C254.76 9.475 255.6 9.74 256.19 10.27C256.78 10.8 257.075 11.61 257.075 12.7V17.5H255.71ZM253.1 17.59C252.51 17.59 251.99 17.49 251.54 17.29C251.1 17.09 250.76 16.815 250.52 16.465C250.28 16.105 250.16 15.7 250.16 15.25C250.16 14.82 250.26 14.43 250.46 14.08C250.67 13.73 251.005 13.45 251.465 13.24C251.935 13.03 252.565 12.925 253.355 12.925H255.875V13.96H253.415C252.695 13.96 252.21 14.08 251.96 14.32C251.71 14.56 251.585 14.85 251.585 15.19C251.585 15.58 251.74 15.895 252.05 16.135C252.36 16.365 252.79 16.48 253.34 16.48C253.88 16.48 254.35 16.36 254.75 16.12C255.16 15.88 255.455 15.53 255.635 15.07L255.92 16.06C255.73 16.53 255.395 16.905 254.915 17.185C254.435 17.455 253.83 17.59 253.1 17.59ZM259.74 17.5V9.55H261.18V17.5H259.74ZM260.46 8.02C260.18 8.02 259.945 7.93 259.755 7.75C259.575 7.57 259.485 7.35 259.485 7.09C259.485 6.82 259.575 6.595 259.755 6.415C259.945 6.235 260.18 6.145 260.46 6.145C260.74 6.145 260.97 6.235 261.15 6.415C261.34 6.585 261.435 6.8 261.435 7.06C261.435 7.33 261.345 7.56 261.165 7.75C260.985 7.93 260.75 8.02 260.46 8.02ZM263.929 17.5V6.37H265.369V17.5H263.929Z" fill="#71717A"/>
<line x1="333" y1="12.5" x2="453" y2="12.5" stroke="#71717A"/>
</svg>
